<?xml version="1.0" encoding="utf-8"?>

<svg version="1.1" baseProfile="tiny" id="Layer_1" xmlns="http://www.w3.org/2000/svg" xmlns:xlink="http://www.w3.org/1999/xlink"
	 x="0px" y="0px" viewBox="0 0 800 800" overflow="visible" xml:space="preserve">
<g id="Background_00000177472063812516722150000014276536992353704585_" display="none">
	<path display="inline" fill="#DDD8DC" d="M655,143.5c0,256,0,256,0,512c-256,0-256,0-512,0c0-256,0-256,0-512
		C399,143.5,399,143.5,655,143.5z"/>
</g>
<path fill="#836796" d="M485.5,129.6l-411.2,418c-1.6,1.6-2.5,3.9-2.5,6.2v117.6c0,4.8,3.8,8.7,8.5,8.7l116.2,1.3c0,0,0.1,0,0.1,0
	c2.3,0,4.5-0.9,6.1-2.6l411.6-418.3L485.5,129.6z M105.4,641.6l0.3-81.7l88.3,81.6L105.4,641.6z"/>
<path fill="#836796" d="M705.7,154.9L589.1,36.5c-3.4-3.4-8.8-3.4-12.2,0l-56.8,57.7l128.5,131.1l57.1-58
	C709.1,163.9,709.1,158.3,705.7,154.9z"/>
</svg>
